<?xml version="1.0" encoding="utf-8"?>
<!-- Generator: Adobe Illustrator 27.5.0, SVG Export Plug-In . SVG Version: 6.00 Build 0)  -->
<svg version="1.1" id="Layer_1" xmlns="http://www.w3.org/2000/svg" xmlns:xlink="http://www.w3.org/1999/xlink" x="0px" y="0px"
	 viewBox="0 0 1080 1080" style="enable-background:new 0 0 1080 1080;" xml:space="preserve">
<style type="text/css">
	.st0{fill:#FFC107;}
	.st1{fill:#FFD760;}
	.st2{fill:#FFD249;}
	.st3{fill:#FFCC33;}
	.st4{fill:#FFC61C;}
</style>
<g>
	<path class="st0" d="M155.93,653.32h13.93c19.93,0,36.08-16.16,36.08-36.08V481.76c0-19.93-16.16-36.08-36.08-36.08h-3.8
		c-19.93,0-36.08-16.16-36.08-36.08v-2.14c0-16.47,11.17-30.83,27.12-34.95c27.43-7.09,48.71-15.94,69.83-28.25
		c5.52-3.22,11.79-4.92,18.18-4.92h33.64c19.93,0,36.08,16.16,36.08,36.08v241.83c0,19.93,16.16,36.08,36.08,36.08h0
		c19.93,0,36.08,16.16,36.08,36.08v15.19c0,19.93-16.16,36.08-36.08,36.08H155.93c-19.93,0-36.08-16.16-36.08-36.08V689.4
		C119.85,669.47,136.01,653.32,155.93,653.32z"/>
</g>
<g>
	<path class="st0" d="M682.5,538.1c0-137.37,60.77-206.38,149.4-206.38c88.63,0,149.4,69.64,149.4,206.38
		c0,137.37-60.77,210.17-149.4,210.17C743.27,748.28,682.5,675.47,682.5,538.1z M878.75,538.1c0-106.35-21.52-122.81-46.85-122.81
		s-46.85,16.46-46.85,122.81s21.52,126.61,46.85,126.61S878.75,644.45,878.75,538.1z"/>
</g>
<g>
	<path class="st1" d="M511.51,462.54v-2.1c0-16.68,13.52-30.2,30.2-30.2h96.6c16.68,0,30.2-13.52,30.2-30.2v-30.77
		c0-16.68-13.52-30.2-30.2-30.21C533.46,338.99,490.1,338.99,473,339c-5.54,0-32.67,0.03-34.28,0.03c-1.22,0-3.26,0-5.78,0.01
		c-8.55,0.01-16.26,3.58-21.75,9.29C457,348.02,457,463,511.51,462.54z"/>
</g>
<path class="st2" d="M511.51,629.2v-13.03c0-16.68,13.52-30.2,30.2-30.2h73.81c16.68,0,30.2-13.52,30.2-30.2v-30.76
	c0-16.68-13.52-30.2-30.2-30.2h-73.81c-16.68,0-30.2-13.52-30.2-30.2v-2.07C457,463,457,348,411.18,348.32
	c-5.24,5.46-8.45,12.88-8.42,21.05v0c0.01,3.27,0.03,6.61,0.04,9.94c0.07,17.05,0.19,79.01,0.2,83.69
	c0.04,45.29,88.98,155.86,89,163"/>
<path class="st3" d="M512,750.69l43.29-0.12h89.35c16.68,0,30.2-13.52,30.2-30.2V689.6c0-16.68-13.52-30.2-30.2-30.2H541.71
	c-16.68,0-30.2-13.52-30.2-30.2V623C459,623,459,463,403.09,462.54c0.26,94.74,0.41,189.77-0.07,284.46H403"/>
<path class="st4" d="M512,827v-76.31C459,751,459,623,403,623c0.11,32.91,0.36,56.03,0.02,124H403v80"/>
<path class="st0" d="M403.02,747H403v80c-59.61,28.74-81.89,100.11-51.8,160.38c30.09,60.27,102.81,85.84,162.41,57.1
	c59.61-28.74,83.53-100.89,53.44-161.16C554.99,859.14,512,827,512,827C459,827,459,747,403.02,747z M476.89,997.75
	c-9.31,9.31-24.59,9.14-34.11-0.39s-9.7-24.8-0.39-34.11c9.31-9.31,24.59-9.14,34.11,0.39S486.2,988.44,476.89,997.75z"/>
</svg>
